%
M48
M72
T01C0.02362
T02C0.03200
T03C0.03937
T04C0.04000
T05C0.04700
T06C0.04724
T07C0.05118
T08C0.05900
T09C0.12598
%
T01
X131250Y25157
X98750Y220000
X311250Y231250
T02
X295000Y231250
X295000Y221250
X295000Y211250
X283750Y211250
X283750Y201250
X295000Y201250
X295000Y191250
X283750Y191250
X283750Y181250
X295000Y181250
X306250Y181250
X306250Y191250
X306250Y201250
X306250Y211250
X317500Y211250
X328750Y211250
X328750Y201250
X317500Y201250
X317500Y191250
X328750Y191250
X328750Y181250
X317500Y181250
X340000Y181250
X340000Y191250
X340000Y201250
X340000Y211250
X351250Y211250
X362500Y211250
X362500Y201250
X351250Y201250
X351250Y191250
X362500Y191250
X362500Y181250
X351250Y181250
X373750Y181250
X373750Y191250
X373750Y201250
X373750Y211250
X362500Y221250
X362500Y231250
X328750Y231250
X328750Y221250
X272500Y211250
X261250Y211250
X261250Y201250
X272500Y201250
X272500Y191250
X261250Y191250
X261250Y181250
X272500Y181250
X250000Y181250
X250000Y191250
X250000Y201250
X250000Y211250
X237500Y211250
X227500Y211250
X227500Y201250
X237500Y201250
X237500Y191250
X227500Y191250
X227500Y181250
X237500Y181250
X216250Y181250
X216250Y191250
X216250Y201250
X216250Y211250
X205000Y211250
X193750Y211250
X193750Y201250
X205000Y201250
X205000Y191250
X193750Y191250
X193750Y181250
X205000Y181250
X182500Y181250
X182500Y191250
X182500Y201250
X182500Y211250
X170000Y211250
X158750Y211250
X158750Y201250
X170000Y201250
X170000Y191250
X158750Y191250
X158750Y181250
X170000Y181250
X147500Y181250
X147500Y191250
X147500Y201250
X147500Y211250
X136250Y211250
X125000Y211250
X125000Y201250
X136250Y201250
X136250Y191250
X125000Y191250
X125000Y181250
X136250Y181250
X113750Y181250
X113750Y191250
X113750Y201250
X113750Y211250
X101250Y211250
X91250Y211250
X91250Y200000
X101250Y200000
X101250Y188750
X91250Y188750
X91250Y177500
X101250Y177500
X101250Y166250
X91250Y166250
X121250Y157500
X131250Y157500
X131250Y145000
X121250Y145000
X126250Y128750
X126250Y118750
X166250Y110000
X176250Y110000
X221250Y145000
X231250Y145000
X231250Y157500
X221250Y157500
X291250Y157500
X301250Y157500
X301250Y145000
X291250Y145000
X296250Y128750
X296250Y118750
X326250Y110000
X336250Y110000
X391250Y145000
X401250Y145000
X401250Y157500
X391250Y157500
X386250Y181250
X397500Y181250
X397500Y191250
X386250Y191250
X261250Y221250
X261250Y231250
X227500Y231250
X227500Y221250
X193750Y221250
X193750Y231250
X158750Y231250
X158750Y221250
X125000Y221250
X125000Y231250
X71250Y215000
X71250Y205000
X46250Y200000
X46250Y190000
X46250Y220000
X46250Y230000
X46250Y155000
X46250Y145000
X56250Y88750
X66250Y88750
T03
X41407Y59331
X61093Y47520
X41407Y34528
T04
X91250Y80000
X111250Y80000
X131250Y90000
X151250Y90000
X171250Y80000
X191250Y80000
X211250Y90000
X231250Y90000
X251250Y80000
X271250Y80000
X291250Y90000
X311250Y90000
X331250Y80000
X351250Y80000
X371250Y90000
X391250Y90000
X386250Y55000
X376250Y55000
X366250Y55000
X356250Y55000
X346250Y55000
X336250Y55000
X326250Y55000
X316250Y55000
X296250Y55000
X286250Y55000
X276250Y55000
X266250Y55000
X256250Y55000
X246250Y55000
X236250Y55000
X226250Y55000
X206250Y55000
X196250Y55000
X186250Y55000
X176250Y55000
X166250Y55000
X156250Y55000
X95000Y128750
X95000Y148750
X141250Y130000
X151250Y130000
X161250Y130000
X171250Y130000
X181250Y130000
X191250Y130000
X201250Y130000
X211250Y130000
X206250Y150000
X196250Y150000
X186250Y150000
X176250Y150000
X166250Y150000
X156250Y150000
X146250Y150000
X266250Y138750
X266250Y118750
X311250Y130000
X321250Y130000
X331250Y130000
X341250Y130000
X351250Y130000
X361250Y130000
X371250Y130000
X381250Y130000
X376250Y150000
X366250Y150000
X356250Y150000
X346250Y150000
X336250Y150000
X326250Y150000
X316250Y150000
X385750Y205000
X386750Y215000
X385750Y225000
X366250Y245000
X356250Y245000
X346250Y245000
X336250Y245000
X326250Y245000
X316250Y245000
X306250Y245000
X296250Y245000
X276250Y245000
X266250Y245000
X256250Y245000
X246250Y245000
X236250Y245000
X226250Y245000
X216250Y245000
X206250Y245000
X190250Y245000
X180250Y245000
X170250Y245000
X160250Y245000
X150250Y245000
X140250Y245000
X130250Y245000
X120250Y245000
X55150Y252200
X37350Y252200
X37350Y277800
X55150Y277800
T05
X41407Y25000
X61093Y25000
X91407Y25000
X111093Y25000
X131407Y25000
X151093Y25000
X171407Y25000
X191093Y25000
X211407Y25000
X231093Y25000
X251407Y25000
X271093Y25000
X291407Y25000
X311093Y25000
X331407Y25000
X351093Y25000
X371407Y25000
X391093Y25000
X391093Y276250
X371407Y276250
X351093Y276250
X331407Y276250
X311093Y276250
X291407Y276250
X271093Y276250
X251407Y276250
X231093Y276250
X211407Y276250
X191093Y276250
X171407Y276250
X151093Y276250
X131407Y276250
X111093Y276250
X91407Y276250
T06
X101565Y280000
X101565Y289843
X140935Y289843
X140935Y280000
X121250Y260315
X181565Y280000
X181565Y289843
X220935Y289843
X220935Y280000
X201250Y260315
X261565Y280000
X261565Y289843
X300935Y289843
X300935Y280000
X281250Y260315
X341565Y280000
X341565Y289843
X361250Y260315
X380935Y280000
X380935Y289843
T07
X361250Y280000
X351407Y260315
X341565Y260315
X371093Y260315
X380935Y260315
X300935Y260315
X291093Y260315
X271407Y260315
X261565Y260315
X281250Y280000
X220935Y260315
X211093Y260315
X191407Y260315
X181565Y260315
X201250Y280000
X140935Y260315
X131093Y260315
X111407Y260315
X101565Y260315
X121250Y280000
T08
X96250Y107500
X36250Y107500
T09
X81250Y55000
X286250Y75000
X406250Y55000
X286250Y185000
X381250Y245000
X86250Y245000
M30
